<?xml version="1.0" encoding="UTF-8"?>
<svg id="Layer_4" data-name="Layer 4" xmlns="http://www.w3.org/2000/svg" xmlns:xlink="http://www.w3.org/1999/xlink" viewBox="0 0 650.27 646.26">
  <defs>
    <style>
      .cls-1 {
        fill: #d6bda1;
      }

      .cls-2 {
        fill: #ccc8c4;
      }

      .cls-3, .cls-4 {
        fill: #231f20;
      }

      .cls-5 {
        fill: url(#radial-gradient);
        stroke: #b3b3b3;
        stroke-width: 7px;
      }

      .cls-5, .cls-6, .cls-7, .cls-4 {
        stroke-miterlimit: 10;
      }

      .cls-8 {
        fill: #999897;
      }

      .cls-9 {
        fill: #7b1226;
      }

      .cls-6, .cls-7 {
        fill: none;
      }

      .cls-6, .cls-7, .cls-4 {
        stroke-width: 2px;
      }

      .cls-6, .cls-4 {
        stroke: #231f20;
      }

      .cls-7 {
        stroke: #000;
      }
    </style>
    <radialGradient id="radial-gradient" cx="971.17" cy="-887.96" fx="971.17" fy="-887.96" r="151.11" gradientTransform="translate(-804.37 1761.88) rotate(-9.47) scale(1.4)" gradientUnits="userSpaceOnUse">
      <stop offset="0" stop-color="#7b1226"/>
      <stop offset=".2" stop-color="#761225"/>
      <stop offset=".42" stop-color="#6a1223"/>
      <stop offset=".63" stop-color="#55121f"/>
      <stop offset=".85" stop-color="#38121a"/>
      <stop offset="1" stop-color="#201216"/>
    </radialGradient>
  </defs>
  <path class="cls-5" d="M548.13,580.5l-145.72-57.46c-22.95-9.05-49.01-5.02-68.14,10.56l-121.5,98.85c-17.14,13.94-42.66.82-41.31-21.22l9.62-156.34c1.51-24.63-10.37-48.16-31.1-61.55L18.42,308.32c-18.55-11.99-13.97-40.32,7.42-45.84l151.66-39.17c23.89-6.17,42.59-24.75,48.93-48.59l40.2-151.39c5.67-21.35,34.03-25.74,45.89-7.11l84.12,132.13c13.25,20.81,36.7,32.86,61.34,31.51l156.4-8.55c22.06-1.21,35,24.41,20.94,41.45l-99.67,120.83c-15.7,19.03-19.91,45.06-11.02,68.07l56.47,146.1c7.96,20.61-12.4,40.83-32.95,32.73Z"/>
  <path class="cls-1" d="M441.11,370.06c-1.75,14.7-34.44,21.94-42.03,23.51-.44,1.39-1.13,3.38-2.17,5.69-3.01,6.64-6.63,10.8-9.94,14.54-3.79,4.28-5.5,5.28-6.91,5.89-1.95.83-3.48.96-6.37,1.18-1.2.09-6.4.44-14.76-.59-2.95-.37-4.85-.73-7.81-.42-3.01.31-4.84,1.07-5.43,1.33-1.29.57-3.33,1.49-5.12,3.61-.47.56-3.03,3.6-2.83,7.53.09,1.83.69,1.86.87,4.33.08,1.14.21,3.15-.61,5.42-.8,2.23-2.12,3.61-2.87,4.38-4.36,4.47-10.49,5-11.36,5.07-1.41.1-2.49,0-6.26.24-1.43.09-2.6.19-3.37.25.42,1.76.79,4.28.51,7.27-.24,2.59-.86,4.33-1.71,6.74-1.04,2.94-1.67,3.56-2.28,3.9-1.36.76-2.88.34-4.11,0-.71-.19-4.81-1.32-6.73-5.14-.93-1.85-.88-3.72-.79-7.46.11-4.42.85-4.9.37-7.35-.51-2.56-1.57-3.23-2.91-6.08-.92-1.95-1.93-4.86-2.19-8.88-1.21,2.52-3.6,4.14-6.17,4.18-.15,0-3.56,0-5.01-2.31-.78-1.24-.53-3.28-.04-7.36.29-2.43.65-4.07-.29-5.75-.4-.72-.92-1.22-1.28-1.52-.87,3.7-1.98,6.68-2.89,8.83-2.27,5.31-4.18,9.78-8.18,11.38-1,.4-1.56.39-2.42,1.06-1.91,1.5-1.68,3.54-2.92,7.29-1.09,3.31-1.71,5.19-3.52,6.45-1.35.94-3.07,1.08-6.51,1.37-2.5.21-3.42-.03-4.13-.56-.22-.16-.95-.74-1.56-2.6-.58-1.76-.49-2.95-.46-6.3.04-4.41-.09-5.05-.38-5.77-.29-.71-1.11-2.73-3.14-3.5-1.76-.66-3.48-.03-3.71.07-.83.34-1.01.72-1.99,1.13-.3.12-2.16.9-3.29.44-1.63-.67-1.26-3.7-2.1-11.19-.5-4.51-.72-4.2-.71-6.05.04-3.8.96-5.02.66-8.73-.17-2.09-.32-3.72-1.48-5.16-1.5-1.86-3.76-2.23-5.33-2.56,0,0-4.38-.91-12.82-4.65-4.72-2.1-8.86-3.93-11.17-8.14-1.87-3.4-1.66-6.76-1.39-11.24.25-4.13,1.19-7.43,3.05-13.87,2.37-8.17,3.91-11.41,3.63-16.92-.07-1.4-.17-3.11-.84-5.25-1.07-3.38-2.37-3.98-4.44-8.4-1.02-2.18-1.79-3.85-2.16-6.28-.14-.94-.45-3.48.21-6.65.2-.95.81-3.71,2.53-6.25,2.56-3.76,6.39-5.3,7.79-5.91,8.9-3.86,15.32-11.64,18.54-14.03,11.6-8.62,71.09-14.13,162.7,31.97,47.43,23.87,48.49,33.9,48.03,37.81Z"/>
  <path class="cls-9" d="M430.34,236.69c2.02,2.9,4.71,4.2,5.81,4.78,5,2.63,7.86,6.45,13.28,13.7,4.63,6.19,6.6,11.91,10.55,23.35,2.73,7.93,3.8,13.21,3.1,19.28-.2,1.73-.5,3.14-.74,4.1.29.42.73,1.05,1.32,1.76,1.51,1.86,2.87,3.02,3.34,3.43,2.69,2.36,4.85,5.41,6.38,7.56,2.52,3.54,3.9,6.45,4.23,7.16,1.72,3.68,2.8,6.08,2.26,9-.34,1.85-1.18,3.08-2.15,4.47-1.19,1.71-2.95,3.68-9.6,8.14-3.35,2.24-6.1,3.89-8.42,6.87-.58.75-1.48,2.02-1.63,3.76-.16,1.74.51,2.99.98,4.11,0,0,1.39,3.38,1.23,8.51-.18,5.55-3.42,9.63-4.31,10.71-1.27,1.55-4,4.89-8.81,6.07-6.55,1.6-11.92-2.03-12.86-2.69-.39-.4-.83-.99-.79-1.68.07-1.25,1.67-1.9,3.12-2.93,2.13-1.52,4.09-4.01,4.51-6.1.24-1.22.14-3.23-3.62-7.76-3.97-4.78-7.94-7.46-10.86-9.5-8.72-6.06-8.48-6.64-13.48-9.98-3.36-2.24-14.34-9.25-36.92-17.15-22.12-7.74-40.76-11.23-51.06-13.16-16.29-3.05-24.43-4.58-27.03-4.92-1.93-.25-5.45-.69-10.16-1.81-5.82-1.39-7.62-2.44-13.36-4.21-4.35-1.34-9.94-3.05-17.15-3.82-7.07-.75-12.24-.22-16.46.24-8.64.94-11.37,2.54-12.82,3.59-1.76,1.26-1.19,1.37-5.18,4.98-4.64,4.19-7.74,6.16-8.84,6.83-3.3,2.02-4.95,3.03-7.02,3.12-4.85.2-8.22-3.62-8.53-3.98-1.93-2.26-2.4-4.67-2.65-6.03-.13-.69-.88-4.73,1.19-8.89.77-1.55,1.85-2.9,2.9-4.2,2.02-2.52,2.92-3,4.51-4.78.83-.93,3.43-3.92,4.94-8.33,1.26-3.69,1.26-6.92,1.25-8.62-.03-3.67-.75-4.49-.49-8.03.15-2.14.29-4.09,1.3-6.21,1.64-3.46,4.56-5.19,8.6-7.59,1.71-1.02,4.23-2.35,7.48-3.53.43-.94,1.13-2.21,2.24-3.51,1.35-1.58,2.69-2.48,3.07-2.72.9-.58,2.2-1.28,5.07-2.01,2.85-.73,4.84-.88,6.16-1.06,3.51-.46,5.93-1.51,9.83-3.2,7.69-3.34,12.84-7.99,16.67-11.52,5.23-4.8,7.84-7.21,9.83-11.15.94-1.87,1.96-4.46,4.41-8.02,1.11-1.61,2.39-3.48,4.21-5.13.66-.52,1.57-1.19,2.7-1.9,1.18-.74,3.32-2.06,6.38-3.03,1.24-.39,3.1-.96,5.62-1.08,1.05-.05,2.83-.11,5.05.44,2.21.55,3.73,1.43,4.68,1.99,2.05,1.2,2.62,2,4.7,3.63,0,0,2.83,2.22,5.8,3.78,2.69,1.41,5.13,1.94,9.9,2.96,3.24.69,6.12,1.3,10.15,1.7,4.02.4,9.23.89,15.79-.09,4.1-.61,6.99-1.04,10.63-2.54,2.34-.96,4-1.96,6.91-2.3,2.65-.31,4.63.13,6.23.45,0,0,5.51,1.1,13.98,1.9,6.95.66,12.85.01,14.83-.23,4.76-.59,7.52-1.46,12.47-.91,3.88.43,5.67,1.35,6.83,2.15,3.28,2.26,4.42,5.57,4.71,6.47.36,1.11,1.22,3.82.34,6.88-.83,2.89-2.9,4.97-5.42,7.52-1.94,1.96-2.44,2.01-2.89,3.13-1.32,3.33,1.36,7.19,1.78,7.79Z"/>
  <path class="cls-2" d="M337.07,299.01c-6.18,1.12-11.06.88-14.34.45-6.61-.85-8.91-2.69-17.28-3.46-3.84-.36-3.66,0-9.05-.42-2.71-.21-5.03-.49-13.39-1.73-11.61-1.73-12.21-1.96-15.04-2.1-5.35-.25-9.73.27-12.54.74-1.31-5.37-2.38-11.95-2.47-19.5-.04-3.48.13-6.73.43-9.7,1.86-.64,4.64-1.4,8.05-1.64,4.92-.34,8.33.62,11.82,1.38,4.75,1.04,9.77,1.47,19.82,2.34,10.08.87,11.94.41,17.66,1.87,3.69.94,4.34,1.5,8.27,2.27,6.31,1.24,9.46,1.86,13.24,1.51,1.74-.16,3.6-.5,5.73.44.39.17,2.35,1.07,3.6,3.04,2.34,3.7.57,8.67-.32,11.17-1.45,4.09-3.19,5.3-3.92,9.75-.25,1.5-.28,2.76-.27,3.58Z"/>
  <path class="cls-6" d="M399.08,393.57c3.92-.76,7.25-1.59,9.87-2.33,2.67-.75,5.87-1.65,9.96-3.27,2.66-1.05,5.24-2.08,7.54-3.47.79-.47,2.09-1.32,3.76-2.18.65-.33,1.25-.75,1.92-1.04.84-.36,1.33-.46,1.52-.91.19-.46-.19-.7-.16-1.29.04-.66.57-1.13,2.4-2.43,1.74-1.23,1.6-1.05,2.14-1.49.93-.75,1.88-1.52,2.51-2.87.11-.24.6-1.31.61-2.79,0-.37-.02-1.61-.79-3.33-.81-1.8-1.91-2.93-2.86-3.88-3.95-3.98-5.54-5.28-5.54-5.28-4.48-3.69-7.54-5.85-7.54-5.85-12.8-8.99-12.05-9.58-18.8-13.58-5.88-3.48-10.79-5.61-13.16-6.58-4.61-1.9-8.21-2.97-10.58-3.67-15.89-4.69-23.84-7.03-31.72-9.04,0,0-12.34-3.14-29.42-6.73-3.42-.72-5.88-1.2-8.39-1.64-4.29-.76-8.13-1.33-10.43-1.66-4.24-.62-4.3-.57-6.91-1-3.52-.58-5.67-.94-8.46-1.69-.89-.24-1.68-.47-6.88-2.25-6.2-2.12-6.05-2.12-7.35-2.54-6.28-2.02-11.56-2.65-14.83-3.02-2.55-.29-5.92-.66-10.42-.53-4.79.14-7.95.75-11.29,1.41-2.54.5-4.19.95-6,1.96-1.7.95-2.95,2.06-3.82,2.85-2.06,1.85-1.95,2.32-4.02,4.19-.45.41-1.61,1.29-3.91,3.04-2.32,1.76-3.03,2.24-3.84,2.73-1.5.89-2.62,1.35-3.19,1.61-.92.41-6.27,2.94-8.68,7.89-1.71,3.51-1.27,6.91-1.06,8.91.32,3.07,1.39,5.24,3.42,9.61,2.06,4.41,2.49,4.23,3.24,6.37.54,1.53,1.42,4.76-.06,12.74-1.26,6.82-2.31,6.67-4.36,15.28-1.52,6.36-1.79,9.99-1.35,13.68.3,2.54.61,4.9,2.3,7.25,1.97,2.74,4.82,4.08,7.43,5.31.59.28,2.22.85,5.5,2,3.63,1.27,7.21,2.68,10.83,3.98,0,0,.89.32,2.96,1.35.84.42,1.22.64,1.61,1.03.73.74,1,1.57,1.18,2.13.28.9.34,1.7.3,3.03-.04,1.33-.13,2.08-.34,4.09-.33,3.17-.36,3.83-.32,4.64.01.32.04.83.3,2.62.4,2.83.57,3.23.92,5.52.28,1.84.54,4,.86,5.94.36,2.28.31,1.22.39,1.92.07.61.06.96.34,1.24.31.31.75.33,1.15.35.78.04,1.36-.24,1.52-.32.57-.29.53-.5,1.21-.95.54-.36,1-.52,1.4-.64,2.31-.75,3.71-.07,3.71-.07,1.25.56,2.01,1.8,2.3,2.27.26.42.59.8.84,1.22.21.35.3.57.54.66.41.15.88-.19.98-.26.33-.24.49-.54.76-1.21.48-1.15.58-1.52.58-1.52s.32-1.19,1.48-4.94c.88-2.86,1.52-4.91,3.37-6,1.2-.71,2.45-.73,3.17-.74,2.11-.04,3.65.82,4.44,1.26.8.46,3.06,1.75,4.1,4.4.98,2.51.41,5.08.37,5.24-.32,1.37-.95,2.44-.53,2.81.09.08.36.25,1.6-.27,1.02-.43,1.93-.81,3.04-1.94,4.03-4.08,6.42-10.45,6.42-10.45,1.1-2.92,2.23-5.93,2.52-10.23.32-4.66-.52-8.45-1.23-10.82,1.14,5.77,1.98,10.43,2.56,13.61.23,1.28.75,4.08.37,6.53-.1.62-.16,1.1-.3,2.06-.36,2.51-.37,2.78-.34,3.14.05.61.17,1.9,1.14,2.96.89.97,2,1.21,2.66,1.35,2.15.46,3.89-.37,4.27-.57,1.71-.87,2.55-2.29,3.05-3.16,2.77-4.82,1.56-12.16,1.32-13.54,0,7.36.03,12.95,0,16,0,.72-.03,2.32.46,4.33.44,1.8,1.1,3.09,1.39,3.63.32.58,1.27,2.35,2.68,3.57.8.69,2.11,1.51,8.28,2.05,1.12.1,3.61.29,8.79.32,4.03.02,6.04.03,7.28-.14,2.42-.34,6.26-.93,9.9-3.73,0,0,3.03-2.32,4.74-5.95.62-1.31.7-2.16.7-2.69,0-.49-.07-.7-.49-2.5-.36-1.56-.54-2.34-.62-2.83-.22-1.4-.18-2.61-.12-3.27.28-2.91,2.07-5.01,2.69-5.75,2.53-2.98,5.81-3.93,7.5-4.4,3.42-.95,6.5-.67,12.66-.11,1.29.12,2.99.31,5.74.48,3.41.21,4.99.17,5.47.16,2.47-.07,3.97-.11,5.71-.57.51-.14,2.62-.74,5.85-3.15,1.03-.77,4.73-3.63,8.71-9.62,1.92-2.9,3.02-5.19,4.12-7.47,1.42-2.96,4.05-8.91,5.89-16.92.51-2.2.83-4.04,1.03-5.27"/>
  <path class="cls-6" d="M249.39,444.1c-.23,2.08-.38,3.81-.48,5.08-.06.77-.09,1.47-.16,2.88-.09,1.85-.08,2.3.04,2.88.14.66.34,1.65,1.11,2.44.87.9,2,1.07,3.18,1.22,1.6.21,2.78-.03,4.83-.45,2.21-.46,3.33-.71,4.22-1.49.35-.31.79-.79,1.66-2.64,1.03-2.19,1.56-3.93,1.89-4.95.45-1.41,1.13-3.45,2.12-5.97"/>
  <path class="cls-3" d="M214.29,380.69c2.76,1.52,5.53,2.99,8.56,3.53,3.11.68,6.28.89,9.3,2.01,6.36,2.45,10.34,8.55,9.46,15.37-.14-1.57-.4-3.11-.91-4.57-1.73-6.08-7.55-9.63-13.51-10.62-4.76-.71-9.28-2.46-12.89-5.73h0Z"/>
  <path class="cls-3" d="M344.57,405.3c4,1.12,8.02,2.49,12.21,2.21,4.15-.17,8.28-.48,12.2-1.89,7.91-2.82,13.92-9.04,20.3-14.28-5.68,6.23-11.65,12.74-19.81,15.7-4.07,1.42-8.43,1.72-12.67,1.63-2.15,0-4.31-.39-6.34-1.03-2.01-.64-3.95-1.52-5.89-2.35h0Z"/>
  <path class="cls-3" d="M395.48,332.13c-1.45,2.38-1.15,5.31-.36,7.83.62,1.52,1.94,2.69,3.09,3.84,1.52,1.4,1.28,3.83.54,5.59-2.39,4.02-4.07,9.64-4.64,13.69-.07.53-.11,1.11-.11,1.64.04,1.09-.14,2.53.71,3.3.85.74,2.19.95,3.34.69,1.9-.38,3.47-1.72,4.6-3.27-1.42,3.01-5.44,5.61-8.6,3.37-1.22-.96-1.2-2.68-1.3-4.08-.02-2.18.34-3.85.81-6.22.72-2.8,1.63-5.34,2.89-7.95,1.05-1.67,2.43-4.12.89-5.9-1.18-1.33-2.53-2.66-3.06-4.4-.64-2.7-.62-5.92,1.22-8.13h0Z"/>
  <g>
    <path class="cls-3" d="M242.45,372.54c-2.49.5-7.43,1.12-13.16-.7-5.49-1.74-8.87-4.82-9.74-5.65-3.66-3.47-5.23-7.14-6.12-9.3-.56-1.36-2.5-6.31-2.34-13.33.07-3.28.45-19.8,12.24-26.43,5.35-3.01,10.78-2.71,12.47-2.55,6.89.64,11.35,4.42,13.06,5.91,5.38,4.69,7.18,10.36,8.29,13.86,1.44,4.53,1.62,8.27,1.71,10.32.22,5.29-.57,9.94-1.23,12.23-3.8,13.21-23.67,19.29-24.75,19.61"/>
    <path class="cls-3" d="M242.45,372.54c-16.83,4.03-30.78-7.38-32.7-24.16-1.14-11.45,1.18-25.13,11.27-32.06,10.62-7.28,25.09-3.6,32.55,6.41,7.42,9.7,9.54,28.53,3.14,39.06-5.42,7.99-14.8,12.27-23.81,14.73,6.84-2.67,13.58-6.33,18.66-11.63,5.36-5.29,6.12-12.82,5.77-19.92-.4-7.02-2.47-14.39-6.74-19.91-4.27-5.34-10.9-9.02-17.84-8.53-17.64.65-22.35,22.65-19.01,36.8,3,13.17,15.45,21.14,28.72,19.21h0Z"/>
  </g>
  <path class="cls-3" d="M269.05,354.44c-2.44,6.46-3.78,8.36-7.41,17.99-.83,2.2-2.1,5.66-2.03,9.6.02,1.26.19,3.19.32,4.75,0,0,.15,1.75.61,4.35.34,1.96.56,2.62,1.12,3.21.73.77,1.65,1.02,2.19,1.16.42.11,1.7.44,3.16-.06,1.23-.42,1.94-1.2,3-2.38.66-.73,1.13-1.4,1.44-1.88.17.5.42,1.27.72,2.22.69,2.2.75,2.58,1.12,3.21.74,1.26,1.78,1.92,2.38,2.3,1.85,1.18,3.66,1.3,4.56,1.35,2.79.16,4.87-.84,5.88-1.33,1.21-.59,2.55-1.26,3.65-2.72.96-1.27,1.27-2.54,1.86-5,.3-1.24.54-2.22.61-3.38.18-3-.86-5.33-1.29-6.35-1.83-4.27-2.94-8.81-4.43-13.21-1.96-5.77-1.9-6.55-4.13-12.8-.1-.27-1.45-4.01-4.01-8.59-2.61-4.67-3.43-4.77-3.73-4.77-1.88.01-2.63,4.48-5.59,12.32Z"/>
  <path class="cls-3" d="M316.44,310.7c-3.63,2.14-12.22,7.89-17.66,19.03-5.8,11.89-4.52,22.76-4,26.74.4,3.03,1.07,7.79,3.8,13.29,4.37,8.79,11.17,13.68,15.29,16.65,3.65,2.63,6.39,3.93,7.43,4.4,5.14,2.33,9.48,2.97,10.74,3.14,1.62.21,9.01,1.08,17.8-2.09,6.34-2.28,10.41-5.58,13.14-7.83,3.28-2.7,9.86-8.26,13.91-18,2.9-6.97,3.21-12.98,3.25-15.34.1-5.44-.93-9.54-1.29-10.89-1.1-4.08-2.61-6.95-3.06-7.77-2.12-3.9-4.69-6.81-6.94-8.88"/>
  <path class="cls-3" d="M319.5,389.47c4.44,2.99,8.98,6.97,14.65,6.75-5.66,2.44-11.68-2.15-14.65-6.75h0Z"/>
  <path class="cls-6" d="M433.65,380.38c.8.61,2.01,1.41,3.63,2.02,2.18.83,3.99.9,5.11.93,1.52.05,4.5.11,7.8-1.4,4.04-1.84,6.12-4.91,6.99-6.22.8-1.2,3.28-5.07,3.09-10.03-.19-4.68-1.56-8.76-1.56-8.76-.38-1.13-.93-2.53-.5-4.18.33-1.24,1.06-2.06,2.33-3.26,2.68-2.54,5.08-4.26,6.46-5.24,4.05-2.88,4.28-2.98,5.76-4.13,0,0,2.34-1.84,4.95-4.79.93-1.05,1.45-1.75,1.72-2.77.35-1.31.06-2.37-.37-4-1.65-6.21-1.51-5.87-1.63-6.17-1.2-3.15-2.79-5.47-4.83-8.12-3.96-5.16-6.6-8.6-11.13-12.55-5.64-4.92-10.65-7.53-16.04-10.3-5.63-2.89-6.08-2.51-18.17-7.86-7.41-3.28-6.9-3.27-12.92-5.9-5.84-2.55-12.42-5.41-21.24-8.39-10.26-3.47-18.16-5.27-20.2-5.73-6.59-1.48-5.97-.96-11.56-2.25-9.24-2.12-10.94-3.53-24.22-7.45-7.29-2.15-12.3-3.36-14.06-3.77-6.2-1.47-11.18-2.38-15.72-3.05-.6-.09-7.03-1-12.99-.97-1.81.01-3.04.11-3.7.17-3.19.3-4.08.76-6.39,1.07-2.53.33-4.44.13-8.25-.26-2.7-.28-4.32-.6-6.58-.99,0,0-4.56-.78-11.76-1.62-3.15-.37-11.11-1.24-20.68.32-5.3.86-11.33,1.91-17.63,6.07-2.45,1.62-7.45,5.01-8.63,9.94-.82,3.43-.43,6.34-.43,6.34.19,1.38.46,1.96.61,3.63.19,2.2-.06,3.9-.22,4.96-.72,4.73-2.7,8.29-3.12,9.02-2.01,3.51-4.79,6.46-6.14,7.89-1.27,1.35-2.38,2.36-3.46,4.31-1.16,2.08-1.58,3.94-1.74,4.77-.29,1.53-.77,4.04.27,6.97,1.07,3.04,3.15,4.77,3.87,5.32,3.47,2.66,7.31,2.45,8.29,2.37"/>
  <path class="cls-6" d="M237.01,244.69c-2.68,1.74-6.94,4.71-10.81,8.52-1.76,1.73-3.18,3.37-3.97,5.73-.4,1.2-.54,2.29-.73,3.7-.39,2.97-.12,4.06-.34,6.02-.24,2.19-.88,3.69-1.96,6.14-1.22,2.78-2.43,4.85-7.33,12.41-3,4.63-3.61,5.5-4.28,7.43-1.09,3.12-1.19,5.71-1.26,7.67-.1,3.01.13,7.99,2.31,13.96"/>
  <path class="cls-6" d="M252.51,244.64c-2.02,1.81-3.65,3.42-4.89,4.69-1.36,1.4-3.22,3.39-5.27,5.95-2.55,3.17-3.05,4.26-3.24,4.72-.85,2-1.05,3.78-1.21,5.27-.26,2.39.03,2.87-.1,5.68-.09,1.96-.18,3.95-.77,6.1-.75,2.68-1.96,4.45-3.75,7.04-2.38,3.46-3.49,3.97-4.55,6.73-.13.34-.71,1.89-.97,4.04-.35,2.87.06,5.25.43,6.74"/>
  <path class="cls-6" d="M341.97,275.66c-.3-.99-.9-2.93-2.56-3.75-.57-.28-1.04-.32-2.01-.41-6.7-.61-3.3-.42-5.15-.48,0,0-2.68-.08-7.26-.58-1.25-.14-4.79-.56-9.07-1.62-4.49-1.12-4.51-1.62-8.3-2.35-.54-.1-3.17-.59-6.7-.82-2.7-.18-3.17-.02-6.14-.17-1.96-.1-3.29-.24-6.82-.65-5.44-.63-8.16-.94-9.43-1.11-12.11-1.59-14.26-2.56-19.26-1.86-2.56.36-4.6.98-5.88,1.43-.39,3.85-.58,8.34-.31,13.33.33,6.13,1.28,11.48,2.35,15.87,1.91-.31,4.88-.71,8.51-.82,9.67-.31,13.11,1.7,24.87,3.31,13.13,1.8,12.7-.18,22.11,1.98,4.69,1.08,8.17,2.34,14.18,2.71,5.03.3,9.2-.18,11.97-.65-.05-.7-.08-1.75.1-3,.29-2.04.96-3.42,1.69-5.06,1.2-2.69,1.9-4.25,2.44-5.93.71-2.2,1.78-5.66.68-9.36ZM292.19,278.38c0,.09-.04.17-.09.25-.03.03-.06.06-.09.1-.04.03-.09.05-.13.07-.03.03-.07.05-.12.07-.01,0-.02,0-.03.01-.05.02-.11.04-.16.05-.06.03-.13.04-.2.05-.02,0-.05.02-.07.03-.34.06-.68.1-1.01.03-.1-.02-.21-.04-.31-.06-.05,0-.11-.01-.16-.02-.05,0-.11-.02-.16-.03-.09-.01-.18-.03-.27-.03-.07,0-.13-.02-.19-.05-.16-.03-.32-.06-.48-.09-.19-.02-.37-.04-.55-.07-.09,0-.18-.02-.27-.02-.05,0-.1,0-.15,0,0,0,0,0,0,0,0,0,0,0-.01,0-.08,0-.17,0-.25,0-.21,0-.41.02-.62.01-.37,0-.76-.05-1.1-.2-.88-.38-1.29-1.53-.66-2.32.38-.49.97-.6,1.54-.42.19.06.36.14.54.22.05,0,.1.02.14.03.53.11,1.07.2,1.6.32.59.04,1.15.15,1.7.37.54.21,1.13.52,1.37,1.08,0,.02,0,.04.01.06,0,0,0,0,0,0,.04.05.07.1.09.15,0,0,0,0,0,0,.06.07.1.15.11.25,0,.05,0,.09,0,.14Z"/>
  <path class="cls-6" d="M269.45,245.99c-.26,1.81-.73,3.17-1.11,4.06-.94,2.22-2.42,4.29-3.39,5.64-.81,1.13-1.29,1.7-1.77,2.83-.51,1.23-.68,2.34-.75,3.11"/>
  <path class="cls-6" d="M255.42,292.49c-.39.62-.93,1.65-1.14,3.02-.11.75-.1,1.41-.05,1.93"/>
  <path class="cls-6" d="M298.82,246.13c-.3,2.45-1.01,4.22-1.6,5.37-1.06,2.07-1.99,2.7-2.88,5.1-.34.94-.53,1.82-.89,3.58-.45,2.15-.72,3.93-.88,5.14"/>
  <path class="cls-6" d="M282.85,294.02c.09.92.09,2.12-.18,3.47-.59,2.91-2.13,4.88-3,5.83"/>
  <path class="cls-6" d="M321.03,249.55c-.86,1.5-1.44,2.86-1.85,3.96,0,0-.91,2.53-1.28,4.84-.33,2.08-.08,2.2-.48,3.36-.42,1.2-1.38,2.78-1.57,3.1-.44.74-.93,1.86-1.12,3.5"/>
  <path class="cls-6" d="M308.98,296.54c.05.63.06,1.56-.21,2.65-.11.45-.29.98-1.28,2.94-1.15,2.27-1.26,2.24-1.44,2.83-.25.85-.4,2.14.23,3.96"/>
  <path class="cls-6" d="M331.03,299.68c-.01.44-.08,1.1-.33,1.84-.26.76-.56,1.16-1.18,2.16-.25.4-.96,1.54-1.56,2.68-.67,1.29-1.02,1.96-1.22,2.92-.15.68-.28,1.8.04,3.25"/>
  <path class="cls-6" d="M343.32,255.69c-.49.41-1.12,1.08-1.46,2.04-.24.67-.19,1.08-.33,2.53-.11,1.16-.19,2.02-.36,2.76-.36,1.49-1.03,2.18-1.77,3.37-.67,1.08-1.48,2.72-1.99,5.09"/>
  <path class="cls-6" d="M357.19,260.51c-.22,1.61-.57,4.08-1.07,7.09-.69,4.1-.88,4.51-1.7,9.15-1.25,7.02-1.03,7.29-1.85,10.07-.53,1.82-.62,1.67-2.39,6.86-1.15,3.37-1.73,5.06-2.09,6.36-.68,2.4-1.72,6.14-2.07,11.01-.19,2.62-.12,4.78-.03,6.23"/>
  <path class="cls-6" d="M373.58,264.24c.05,1.28.09,3.06.04,5.18-.11,4.79-.6,8.38-1.09,11.9-.7,5.03-1.51,8.83-1.78,10.06-.73,3.36-.91,3.56-2.53,10.04-1.42,5.68-2.14,8.57-2.49,11.16-.56,4.09-.56,7.54-.45,9.91"/>
  <path class="cls-6" d="M396.45,270.38c.31,1.3.66,3.06.9,5.16.15,1.29.41,3.62.25,6.16-.07,1.22-.26,2.9-1.96,8.57-1.66,5.53-1.91,5.37-3,9.32-.54,1.95-.46,1.92-2,8.38-.94,3.97-1.42,5.95-1.67,6.87-.85,3.15-2.44,7.6-5.67,12.92"/>
  <path class="cls-6" d="M418.64,279.54c-.35,1.37-.88,3.39-1.54,5.85-1.25,4.67-1.75,6.3-2.65,9.68-1.13,4.19-1.85,6.89-2.63,10.51-1.15,5.34-1.75,9.58-2.15,12.43-.85,6.06-1.27,9.09-1.21,10.1.03.58.19,2.64-.51,4.91-.35,1.15-.87,2.2-.94,2.33-.47.93-.96,1.68-1.39,2.25"/>
  <path class="cls-6" d="M437.9,288.01c-.23.86-.56,2.14-.98,3.7-1.42,5.31-2.13,7.96-2.74,9.77-.33.96-1.27,3.29-3.17,7.95-1.93,4.73-2.04,4.89-2.57,6.4-.83,2.36-1.67,4.76-2.32,8.02-.41,2.09-.59,3.77-1.42,6.76-.35,1.29-.65,2.15-.78,2.54-.94,2.74-1.41,4.11-2.51,5.58-1.55,2.08-3.39,3.08-3.84,3.32-1.55.81-2.97,1.09-3.9,1.19"/>
  <path class="cls-6" d="M458.17,298.98c-.1,1.14-.27,2.74-.54,4.65-.48,3.33-.85,5.86-1.86,8.91-.57,1.74-1.41,4.21-3.22,7.04-2.16,3.35-4.73,5.7-5.05,5.98-1.5,1.35-2.49,1.94-3.99,3.74-.82.99-1.64,1.98-2.26,3.45-.73,1.73-.66,2.87-.92,5.17-.25,2.27-.62,3.86-1.15,6.18-.41,1.77-1.34,5.4-3.24,9.68-.87,1.96-1.71,3.55-2.36,4.69"/>
  <path class="cls-6" d="M469.91,310.99c-.44.75-1.03,1.81-1.67,3.11-.94,1.91-1.51,3.39-2.15,5.05-1.09,2.83-1.17,3.4-2.33,6.38-.75,1.91-1.13,2.87-1.46,3.4-.79,1.27-1.57,1.93-5.21,4.67-3.19,2.41-4.01,2.96-5.51,4.32-2.14,1.94-2.77,2.88-3.19,3.69-.6,1.17-.79,2.21-1.15,4.24-.37,2.09-.3,2.63-.66,5.77-.34,2.99-.51,4.51-.96,5.9-.33,1.03-.88,2.73-2.23,4.58-1.19,1.64-2.51,2.7-3.42,3.33"/>
  <path class="cls-3" d="M440.75,367.19c2.16,1.08,3.88,2.68,5.11,4.77-2.17-1.08-3.88-2.69-5.11-4.77h0Z"/>
  <path class="cls-6" d="M227.45,246.84c.39-1.02,1.11-2.55,2.46-4.02.51-.56,2.31-2.42,7.21-4.12,2.83-.98,3.99-.97,7.1-1.68,0,0,4.22-.97,9.45-3.05,7.37-2.94,12.57-7.68,15.74-10.62,3.24-3,8.58-7.95,13.04-15.76,2.08-3.63,3.42-6.95,7.34-10.14.69-.56,3.37-2.68,7.49-4.08,2.32-.79,6.63-2.25,11.64-.96,2.79.72,4.86,2.06,6,2.81,2.71,1.78,3.06,2.84,5.56,4.6,2.11,1.49,3.82,2.11,7.07,3.31,5.04,1.85,9.21,2.59,10.86,2.86,5.26.84,9.14.73,13.8.59,4.75-.14,10.81-.33,15.95-1.99,1.55-.5,2.65-.83,4.85-1.49,3.97-1.18,4.73-1.34,5.6-1.43,1.06-.11,2.11-.11,5.65.35,3.48.45,6.02.92,6.88,1.07,5.56.97,10.11.97,12.58.97,3.44,0,6-.27,11.11-.81,6.31-.67,8.38-1.21,11.98-.4,3.91.88,5.74,2.48,6.35,3.06,1.87,1.77,2.61,3.76,3.03,4.9.48,1.32,1.66,4.56.49,8.09-.78,2.35-2.31,3.97-2.92,4.6-1.55,1.6-2.42,1.69-3.78,3.52-.69.93-1.46,2-1.67,3.6-.24,1.82.38,3.28.65,3.89.49,1.11,1.11,1.84,1.39,2.15,2.95,3.35,6.76,5.77,6.76,5.77,2.99,1.89,4.78,3.83,8.35,7.7,3.6,3.9,5.4,7.37,8.03,12.43,1.35,2.6,2.47,5.07,3.38,7.34,1.87,4.63,2.85,8.22,3.77,11.62.42,1.54.75,2.88,1.04,4.5.3,1.64.43,2.86.61,4.51.46,4.27.09,3.44.43,5.81.31,2.12.7,3.41-.1,4.45-.35.46-.81.71-1.15.85"/>
  <path class="cls-4" d="M263.85,269.76c4.42.81,8.83,1.62,13.25,2.44-.37.82-.57,1.39-.68,1.79-.02.07-.13.46-.43.86-.19.26-.32.33-.43.37-.18.06-.46.08-.66-.07-.19-.15-.16-.35-.31-1.21-.1-.58-.15-.69-.2-.77-.05-.09-.22-.36-.68-.62-.3-.17-.55-.24-1.54-.42-1.27-.23-1.48-.22-1.71-.17-.19.04-.61.14-.97.48-.31.28-.41.59-.61,1.18-.28.84-.07.78-.34,1.93-.05.2-.13.53,0,.89.04.11.1.3.28.43.16.11.27.07.82.07.31,0,.36.02.81.02.35,0,.48,0,.63-.07.1-.04.29-.12.37-.31.05-.11.02-.17-.04-.57-.07-.43-.07-.56-.07-.63,0-.18.03-.33.05-.43l1.31-.22.05,3.99c-.68-.11-1.22-.21-1.58-.28-.48-.09-.96-.12-1.44-.23-.47-.11-.84-.24-1.18-.05-.15.09-.24.21-.3.29.25,1.51.49,3.03.74,4.54.14.07.34.17.58.31.65.37.76.53,1.15.72.39.19.7.24,1.21.32.46.08.79.08,1.45.07,1.09,0,1.23-.11,1.29-.22.09-.16.03-.39-.09-.53-.13-.16-.31-.14-.72-.23,0,0-.4-.08-.84-.24-.37-.13-.64-.23-.9-.46-.16-.14-.42-.37-.49-.72-.11-.58.37-1.08.47-1.18.24-.24.58-.47,1.69-.67,1.3-.23,1.92-.3,2.36-.18.22.06.44.15.44.15.32.13.64.27.86.54.26.33.26.72.26,1.01,0,.62-.25,1.07-.53,1.56-.38.67-.81,1.15-.99,1.32-1.22,1.17-3.92.83-5.01.68-2.27-.31-5.04-.77-8.23-1.46.08-.53.09-.93.09-1.21,0-.15-.01-.38.14-.51.13-.1.31-.08.35-.08.17.02.24.1.42.19.21.11.28.08.57.17.16.05.4.13.68.29.04-3.87.07-7.74.11-11.61-.03-.07-.09-.16-.18-.25-.07-.07-.18-.14-.37-.2-.41-.13-.59.01-.75-.1-.1-.07-.21-.25-.15-.72Z"/>
  <path class="cls-4" d="M293.54,281.09c1.07-.24,1.61-.37,1.94-.68.64-.61.7-1.5.75-2.18.04-.51.08-1.13-.26-1.79-.32-.6-.79-.92-1-1.06-.81-.53-1.64-.55-2.29-.59,0,0-1.66-.09-4.1-.43-1.73-.24-2.6-.42-3.71-.89-1.29-.54-2.24-1.24-2.85-1.76-.11.1-.27.26-.41.5-.16.26-.34.57-.25.9.07.23.24.37.39.49.08.07.26.21.53.27.24.06.35,0,.47.1.11.09.14.25.14.37-.42,1.02-.76,1.89-1.01,2.55,0,0-1.55,4.13-1.76,5.94-.04.34-.06.5-.11.81-.03.18-.07.42-.14.72-.14.61-.23.71-.27.74-.14.14-.31.18-.59.24-.28.07-.33.02-.71.09-.58.1-.64.23-.65.27-.03.09,0,.22.01.25.02.09.07.16.1.2l6.52.75c-.03-.51-.05-.95-.06-1.28-.02-.67-.03-1.11.02-1.69.03-.36.04-.25.1-.97.08-.83.12-1.25.12-1.38,0-.5-.06-.67.08-.85.17-.2.48-.27.73-.21.39.08.59.46.74.74.2.39.24.69.35,1.62.11.9.16,1.35.18,1.57.06.66.07.99.16,1.73.06.56.09.85.14.94.35.77,1.35,1.03,2.13,1.23.92.24,1.65.23,2.25.22,1.3-.02,2.23-.27,2.76-.41.96-.26,1.35-.5,1.5-.59.26-.17.73-.48,1.11-1.07.13-.21.51-.83.48-1.67-.01-.33-.03-.92-.44-1.24-.22-.17-.47-.21-.87-.22-.89-.01-1.6-.02-2.48.38-.5.23-1.75.81-1.74,1.66,0,.33.19.69.47.89.27.2.58.22.89.23.22.01.57.03.97-.11.2-.07.37-.16.62-.12.19.03.29.11.32.13.11.09.21.27.17.42-.03.13-.16.21-.5.32-.43.13-.74.16-1.05.2-.51.06-.86.1-1.31.22-.32.08-.59.17-.92.06-.11-.04-.19-.09-.31-.17-.38-.25-.59-.54-.64-.61-.09-.13-.24-.36-.31-.68-.06-.29-.03-.51.01-.78.07-.46.15-.49.25-.96.09-.43.15-.72.06-1.09-.11-.45-.37-.74-.45-.82-.21-.22-.44-.36-.48-.38-.27-.16-.42-.16-.6-.33-.14-.13-.21-.27-.26-.37.99.08,1.84.06,2.48.02,1.17-.08,2.01-.27,2.56-.39ZM289.98,278.98s-.08,0-.13-.01c-.33.02-.66.02-1,0-.83-.06-1.68-.15-2.5-.27-.67-.1-1.39-.21-1.59-.98-.06-.24-.1-.54-.08-.79.02-.16.07-.31.17-.43.03-.03.06-.06.09-.08.04-.08.08-.15.14-.23.38-.49.97-.6,1.54-.42.19.06.36.14.54.22.05,0,.1.02.14.03.53.11,1.07.2,1.6.32.59.04,1.15.15,1.7.37.54.21,1.13.52,1.37,1.08,0,.02,0,.04.01.06,0,0,0,0,0,0,.04.05.07.1.09.15,0,0,0,0,0,0,.06.07.1.15.11.25,0,.05,0,.09,0,.14,0,.09-.04.17-.09.25-.03.03-.06.06-.09.1-.04.03-.09.05-.13.07-.03.03-.07.05-.12.07-.01,0-.02,0-.03.01-.05.02-.11.04-.17.05,0,0,0,0,0,0-.06.02-.12.04-.18.05-.02,0-.05.02-.07.03-.34.06-.68.1-1.01.03-.1-.02-.2-.04-.3-.06Z"/>
  <path class="cls-4" d="M299.4,274.86c4.42.81,8.83,1.62,13.25,2.44-.37.82-.57,1.39-.68,1.79-.02.07-.13.46-.43.86-.19.26-.32.33-.43.37-.18.06-.46.08-.66-.07-.19-.15-.16-.35-.31-1.21-.1-.58-.15-.69-.2-.77-.05-.09-.22-.36-.68-.62-.3-.17-.55-.24-1.54-.42-1.27-.23-1.48-.22-1.71-.17-.19.04-.61.14-.97.48-.31.28-.41.59-.61,1.18-.28.84-.07.78-.34,1.93-.05.2-.13.53,0,.89.04.11.1.3.28.43.16.11.27.07.82.07.31,0,.36.02.81.02.35,0,.48,0,.63-.07.1-.04.29-.12.37-.31.05-.11.02-.17-.04-.57-.07-.43-.07-.56-.07-.63,0-.18.03-.33.05-.43l1.31-.22.05,3.99c-.68-.11-1.22-.21-1.58-.28-.48-.09-.96-.12-1.44-.23-.47-.11-.84-.24-1.18-.05-.15.09-.24.21-.3.29.25,1.51.49,3.03.74,4.54.14.07.34.17.58.31.65.37.76.53,1.15.72.39.19.7.24,1.21.32.46.08.79.08,1.45.07,1.09,0,1.23-.11,1.29-.22.09-.16.03-.39-.09-.53-.13-.16-.31-.14-.72-.23,0,0-.4-.08-.84-.24-.37-.13-.64-.23-.9-.46-.16-.14-.42-.37-.49-.72-.11-.58.37-1.08.47-1.18.24-.24.58-.47,1.69-.67,1.3-.23,1.92-.3,2.36-.18.22.06.44.15.44.15.32.13.64.27.86.54.26.33.26.72.26,1.01,0,.62-.25,1.07-.53,1.56-.38.67-.81,1.15-.99,1.32-1.22,1.17-3.92.83-5.01.68-2.27-.31-5.04-.77-8.23-1.46.08-.53.09-.93.09-1.21,0-.15-.01-.38.14-.51.13-.1.31-.08.35-.08.17.02.24.1.42.19.21.11.28.08.57.17.16.05.4.13.68.29.04-3.87.07-7.74.11-11.61-.03-.07-.09-.16-.18-.25-.07-.07-.18-.14-.37-.2-.41-.13-.59.01-.75-.1-.1-.07-.21-.25-.15-.72Z"/>
  <path class="cls-4" d="M315.68,276.83c2.03.49,4.06.97,6.1,1.46-.56,1.76-1.11,3.52-1.67,5.29.05.11.14.25.27.27.23.05.47-.25.84-.72.49-.65.8-1.08.96-1.31.32-.43.61-.7,1.18-1.25.91-.87,1.37-1.3,2-1.59.6-.27,1.28-.63,2.05-.4.58.18.92.6,1.03.74.59.76.54,1.71.46,2.59-.22,2.73-.33,4.09-.75,5.43-1.05,3.32-1.07,3.37-1.07,3.37s-.49,1.35-.17,2.27c.08.23.15.45.36.62.23.19.43.16.69.44.2.21.19.34.18.37-.02.11-.1.18-.15.21-.24-.02-.58-.06-.99-.17-.45-.12-.76-.27-.91-.34-.64-.29-1.62-.73-2.87-1.29.49-1.64.89-2.95,1.26-4.13.13-.42.37-1.17.44-2.19.02-.32.05-1-.12-1.83-.16-.78-.3-1.45-.78-1.64-.37-.14-.76.06-1.08.21-.36.18-.65.42-1.21,1.13-.64.8-.96,1.2-1.21,1.75-.13.3-.35.85-.48,2.07-.09.87-.15,2.14.06,3.71-1.87-.4-3.73-.79-5.6-1.19-.02-.45.08-.78.16-.97.11-.26.19-.47.4-.55.16-.06.25,0,.84.11.49.09.58.08.64.03.07-.05.13-.16.12-.61-.01-.43-.09-.74-.12-.91,0,0-.05-.26-.07-1.2-.01-.77.18-3.88.59-8.09-.14-.23-.3-.37-.41-.45-.15-.11-.31-.17-.57-.28-.39-.16-.48-.15-.55-.25-.07-.11-.1-.31.12-.73Z"/>
  <path class="cls-8" d="M435.68,229.2c-3.42,5.24,1.02,6.03,5,7.74,4.01,1.64,7.87,4.09,10.75,7.4,5.63,6.43,9.88,14.3,11.16,22.79-2.73-5.71-5.67-11.09-9.5-16.03-1.24-1.59-2.59-3.25-3.91-4.77-2.57-3.04-5.91-5.29-9.52-7.28-4.35-2.18-9.21-5.2-3.98-9.84h0Z"/>
  <path class="cls-7" d="M299.41,449.28c-.16,2.41-.3,5.1-.4,8.04-.12,3.72-.08,5.44.79,7.46.33.76.86,1.96,1.98,3.06,2.56,2.52,7.38,3.68,10.04,1.72.71-.52,1.58-1.5,2.53-8.25.55-3.9.76-7.15.85-9.39"/>
  <path class="cls-8" d="M265.09,220.15c5.99-6.24,9.42-14.14,14.6-21.01,6.75-9.48,18.65-17.7,30.52-12.65,2.72,1.13,5.19,2.77,7.2,4.81-10.55-6.78-21.04-4.89-29.88,3.47-8.33,7.36-13.03,18.96-22.44,25.37h0Z"/>
  <path class="cls-8" d="M326.75,196.37c6.89,3.26,13.94,3.91,21.34,3.35,4.9-.13,9.69-.25,14.48-1.2,4.86-.84,9.46-3.29,14.52-3.15,2.53-.02,5.05.23,7.47.86-2.49.03-4.94.19-7.34.61-5.01.63-9.11,3.41-14.06,4.47-4.9,1.16-10.05,1.32-15.03,1.26-2.47-.06-4.98-.04-7.52-.37-5.13-.63-9.94-2.73-13.85-5.82h0Z"/>
  <path class="cls-8" d="M195.09,292.23c-5.2,7.98-3.79,19.68,5.05,24.33,0,0,1.64.91,1.64.91l-1.22,1.38c-5.57,5.79-5.6,14.8-1.98,21.67-6.01-6.35-6.28-17.18-.26-23.63,0,0,.42,2.29.42,2.29-10.12-5.11-11.92-19.38-3.64-26.95h0Z"/>
  <path class="cls-8" d="M220.2,410.45c3.46-.74,8.2-1.36,10.6,1.94.63,1.03.54,2.28.55,3.35-.04,3.23-.37,6.53-.79,9.7-.49,3.65.04,7.36.73,10.99.46,2.26.95,4.83,2.17,6.71,2.9,4.67,7.07,2.45,10.36-.44.39-.31,1.24-.17,1.49.29.79,1.43.39,3.1.27,4.53-.07-.64-.15-1.28-.27-1.91-.14-.63-.29-1.86-.83-2.06.03-.02-.17.12-.36.34-3.28,4.52-9.29,5.89-12.78.81-1.73-2.35-2.34-4.99-2.93-7.71-1.31-5.15-1.15-10.56,0-15.73,0,0,.55-3.77.55-3.77.14-1.45.51-2.93.23-4.2-1.78-2.81-5.97-2.67-9-2.84h0Z"/>
  <path class="cls-8" d="M256.97,461.6c3.54-.31,7.04-2.1,8.65-5.31,1.81-3.39,2.96-7.2,3.3-11.04,0,0,1.06-.02,1.06-.02,1.97-.02,3.56-.81,4.51-2.54,1.75-2.81,3.7-6.35,5.49-9.21,0,0,.56,4.1.56,4.1.71,5.47,6.47,6.43,10.48,3.59,0,0,2.09-1.47,2.09-1.47,0,0,.2,2.53.2,2.53.21,3.24,1.55,6.35,3.76,8.74-.27,2.2-.45,4.41-.49,6.63.06,2.99-.26,6.14.72,9,1.08,2.87,3.36,5.06,5.97,6.7-3.96-1.52-7.55-4.92-8.17-9.34-.68-4.22-.88-8.44-.62-12.7,0,0,.32.96.32.96-2.46-2.63-4.07-6.12-4.37-9.77l2.28,1.06c-5.92,4.26-14.06,2.21-15.04-5.62,0,0,2.69.56,2.69.56-1.17,1.94-2.32,3.84-3.65,5.74-.7,1.03-1.7,2.17-2.92,2.68-1.24.58-2.58.74-3.83.7l1.18-1c-.66,3.77-2.16,7.28-4.25,10.48-2.11,3.28-6.15,4.9-9.91,4.54h0Z"/>
  <path class="cls-8" d="M318.32,463.55c-.29-2.86-.39-5.72-.41-8.58,0,0,1.04.04,1.04.04,8.07.26,18.21-3.14,21.81-10.88,1.15-2.59,1.42-5.61,1.06-8.67,1.37,2.78,1.78,6.15.92,9.35-2.88,9.6-14.84,13.96-24.02,12.03,0,0,1.03-.85,1.03-.85-.38,2.54-.83,5.06-1.43,7.57h0Z"/>
  <path class="cls-8" d="M399,402.94c.58-1.99,1.17-3.98,1.79-5.95,5.88-.51,11.62-1.95,16.96-4.24,5.58-2.44,10.86-5.64,15.59-9.48,3.16,2.82,7.34,4.42,11.57,3.92,12.69-1.92,22.28-12.27,18.99-25.56,3.67,8.04.64,18.17-6.59,23.26-3.59,2.57-7.62,4.65-12.08,5.19-4.53.59-9.33-.83-12.83-3.78,0,0,1.83.02,1.83.02-4.73,3.66-10,6.57-15.61,8.65-5.61,2.06-11.6,3.03-17.49,2.87l.39-.28c-.82,1.81-1.66,3.61-2.52,5.4h0Z"/>
  <path class="cls-8" d="M464.81,274.3c2.96,8.42,4.35,17.37,4.41,26.28,0,0-.41-.98-.41-.98,6.63,6.25,12.18,13.84,15.15,22.54,2.69,7.38,2.27,14-4.26,19.15-1.79,1.45-3.86,2.5-6.02,3.11,2.01-1,3.8-2.32,5.3-3.89,5.3-5.43,5.13-10.8,2.42-17.47-3.15-8.08-8.43-15.3-14.47-21.52,0,0-.42-.44-.42-.44,0,0,.02-.55.02-.55.32-8.8-.36-17.53-1.73-26.25h0Z"/>
  <path class="cls-3" d="M285.19,214.57c.85-6.9,5.71-13.54,12.45-15.75,4.61-1.47,9.73-.73,13.93,1.59,2.07,1.08,3.64,3.08,5.21,4.67,3.19,2.98,7.35,4.97,11.77,6.03-5.67-.22-11.44-2.92-15.31-7.23-2.37-2.17-5.55-3.29-8.71-3.71-9.04-1.4-16.87,6.17-19.34,14.4h0Z"/>
  <path class="cls-3" d="M357.12,211.54c4.63-.4,9.22-1.29,13.46-3.08,6.03-3.06,10.88-3.43,17.24-.92,7.76,2.23,15.96.75,23.93.37,3.52-.18,6.98-.81,10.56-.68,2.66.02,5.14,1.73,6.37,4.02,2.04,3.27,1.84,7.93-1.03,10.62-1.57,1.69-2.97,3.33-3.72,5.51-2.51,6.53.63,14.18,6.77,17.46-6.72-2.87-10.36-10.91-8.01-17.88.65-2.32,2.24-4.36,3.78-6.11,1.49-1.67,2.18-3.56,1.76-5.74-.35-2.05-1.53-4.06-3.19-5.13-1.6-1.08-3.92-.87-6.18-.7-6.95.67-13.91,1.24-20.95,1.32-4.7.13-9.51-.85-13.85-2.63-4.46-1.49-8.86-.44-13.12,1.41-4.46,1.52-9.16,2.22-13.81,2.16h0Z"/>
  <path class="cls-3" d="M442.96,257.11c3.24,3.43,5.96,7.45,7.84,11.81,3.08,8,4.57,16.46,6.6,24.76-4.09-1.88-8.19-3.84-12.24-5.78-10.46-4.9-21.11-9.69-30.23-16.89,13.15,8.08,27.74,13.19,41.5,20.07,0,0-1.39,1.08-1.39,1.08-1.8-7.57-2.99-15.37-5.36-22.78-1.59-4.41-3.91-8.48-6.72-12.25h0Z"/>
  <path class="cls-3" d="M276.69,221.23c-4.66,8.86-13.7,14.12-22.77,17.66,0,0-3.9,1.6-3.9,1.6l-.29-1.67c9.75-.27,19.4,2.22,28.96,3.64,3.19.28,6.19-.78,9.37-1.26,9.82-1.26,19.64.3,29.2,2.39,3.17.72,6.32,1.5,9.43,2.44-6.36-1.29-12.75-2.34-19.17-3.03-6.37-.58-12.83-.99-19.16,0-3.19.59-6.46,1.69-9.82,1.4-9.61-1.31-19.07-3.92-28.81-3.87,0,0-4.39-.04-4.39-.04,11.79-4.7,24.01-7.93,31.34-19.26h0Z"/>
  <path class="cls-3" d="M339.28,249.04c5.29,2.05,10.71,3.71,16.18,4.94,5.51,1.06,11.18,1.88,16.71,3,11.14,2.21,22.22,5.3,32.48,10.23-10.81-3.44-21.75-6.12-32.87-8.27-4.94-1.04-11.83-2.2-16.68-3.45-5.53-1.51-10.84-3.7-15.81-6.45h0Z"/>
  <path class="cls-3" d="M226.18,313.16c14.33-7.11,31.29,4.75,33.47,19.68-1.18-3.48-2.87-6.72-5.01-9.59-6.45-8.71-17.85-13.51-28.46-10.09h0Z"/>
  <path class="cls-3" d="M262.01,343.54c1.95,5.27.76,11.75-2.98,15.97,1.83-5.2,2.82-10.45,2.98-15.97h0Z"/>
  <path class="cls-3" d="M306.94,313.62c-12.53,10.63-17.79,27.86-15.34,43.89-4.69-15.79,1.24-34.86,15.34-43.89h0Z"/>
  <path class="cls-3" d="M293.25,364.66c2.22,7.31,6.49,13.68,12.41,18.51-7.19-3.04-12.31-10.74-12.41-18.51h0Z"/>
  <path class="cls-3" d="M219.13,316.16c-7.17,6.75-10.92,16.14-10.34,25.92-2.84-9.61,1.7-20.88,10.34-25.92h0Z"/>
  <path class="cls-3" d="M351.67,393.79c14.32-4.83,26.07-16.72,29.74-31.46,1.22-4.86,1.62-9.94,1.2-15.01,1.01,4.99,1.01,10.23-.06,15.27-3.08,15.21-15.74,27.96-30.89,31.2h0Z"/>
  <path class="cls-3" d="M293.08,382.26c5.38,8.37,1.11,20.04-9.36,20.96-3.04.41-6.16-.22-8.75-1.66,2.83.9,5.78,1.07,8.57.5,9.59-1.54,12.89-11.45,9.54-19.81h0Z"/>
  <path class="cls-3" d="M264.15,361.35c-3.39,7.26-5.62,15.09-5.73,23.09.03,2.92-.15,5.96.83,8.72,1,2.56,3.59,4.75,6.44,4.51,1.91-.13,3.67-1.37,4.91-2.94-.97,1.76-2.68,3.25-4.81,3.67-4.54.75-8.23-3.6-8.58-7.82-.71-6.14-.17-12.37,1.72-18.24,1.22-3.9,3-7.61,5.22-10.99h0Z"/>
  <path class="cls-3" d="M237.66,415.13c-.78,3.94-1.03,8-.22,11.83.48,1.96.75,4,.99,6.01.18,1.12.1,2.37.51,3.28.17.11.53-.18.94-.51,1.56-1.51,4.12-2.85,6.23-1.31,1.13.68,1.63,1.87,2.53,2.06.48-.11.58-.68.79-1.24.83-3.99,3.29-7.87,7.21-9.36-2.57,1.59-4.54,3.9-5.37,6.78-.65,1.7-.61,6.15-3.58,4.88-1.54-.98-2.61-2.96-4.62-2.21-1,.32-1.93,1.4-2.95,2.05-.59.44-1.8.53-2.32-.21-.83-1.27-.59-2.78-.79-4.08-.15-2-.38-3.95-.72-5.93-.66-4.11.03-8.26,1.36-12.04h0Z"/>
  <path class="cls-3" d="M283.92,412.61c1.25,3.34,2.21,6.81,2.95,10.3.72,2.65.53,5.57-.19,8.19-.47,1.65-.39,2.83,1.41,3.02,2.46.09,2.02-3.86,2.5-5.78.49-3.52,1.08-7.04,1.76-10.54-.1,3.57-.3,7.12-.6,10.67-.34,2.28.16,5.25-2.07,6.75-1.58.78-3.59.33-4.51-1.36-.72-1.94.46-3.77.63-5.64.32-1.73.2-3.36-.09-5.09-.54-3.51-1.1-7-1.8-10.51h0Z"/>
  <path class="cls-3" d="M297.31,428.85c.5,3.18.83,6.38,1.41,9.53.39,3.19,1.44,6.09,4.48,7.53,5.19,3.21,22.21,1.72,27.52-1.18,2.5-1.39,5.31-3.7,4.27-6.82-1.84-6.54-1.63-13.43,4.04-17.96-5.06,4.87-4.96,11.4-2.93,17.63,1.45,3.55-1.83,6.83-4.66,8.37-5.76,3.29-23.24,4.74-28.81.96-1.45-.85-2.74-2.06-3.54-3.6-.73-1.6-.88-3.22-1.1-4.82-.34-3.21-.52-6.42-.69-9.63h0Z"/>
  <path class="cls-8" d="M344.73,426.21c6.79-6,13.79-3.24,21.66-2.24,10.72,1.65,17.97-1.59,24.93-9.76,1.61-1.81,3.02-3.82,4.32-5.95-.69,2.4-1.79,4.68-3.14,6.83-6.17,9.84-15.09,13.87-26.53,11.68-4.82-.64-9.46-2.89-14.3-2.56-2.36.16-4.71.9-6.94,2h0Z"/>
  <path class="cls-8" d="M394.78,197.3c6.08.28,12.24-.02,18.1-1.57,6.12-1.72,12.43-2.41,18.86-1.46,10.36,1.78,15.39,14.04,12.28,23.38-.98,3.03-2.58,5.82-4.74,8.05,3.26-5.24,4.56-11.49,2.99-17.13-1.38-5.54-5.36-10.41-11.13-11.37-5.7-.93-12-.37-17.75.79-6.17,1.15-12.57.83-18.61-.71h0Z"/>
  <path class="cls-8" d="M254.28,228.59c-2.37,1.89-5.16,3.36-8.17,4.17-2.95.86-6.04.47-8.94,1.33-2.86.69-5.52,1.84-7.74,3.58-2.41,1.83-4.22,4.33-5.38,7.11,0,0-.6.21-.6.21-4.31,1.4-8.18,3.86-11.77,6.57-2.69,2-5.02,4.19-6.19,7.27-1.12,3.15-.03,6.65-.28,9.96-.02,7.26-.69,14.57-6.26,19.84,2.76-3.81,4.26-8.31,4.19-12.85,0-3.47-.05-6.93-.41-10.37-.27-2.39-.72-5.1.19-7.48,1.15-3.64,4.09-6.56,6.98-8.71,3.82-2.99,8.01-5.48,12.64-6.94,0,0-.85.76-.85.76,1.41-2.93,3.57-5.52,6.22-7.4,3.99-2.77,8.81-3.94,13.54-3.83,4.54.26,8.85-.97,12.83-3.19h0Z"/>
  <path class="cls-8" d="M201.52,345.69c5.39,5.34,1.94,11.26.62,17.35-3.31,14.98-10.51,28.28,3.34,40.36,2.15,1.99,4.62,3.67,7.28,5.08-2.91-.79-5.68-2.17-8.2-3.93-16.03-11.24-9.45-26.85-4.64-42.2,1.69-5.97,5.68-10.55,1.61-16.65h0Z"/>
</svg>